<svg xmlns="http://www.w3.org/2000/svg" viewBox="0 0 100 100">
  <rect width="100" height="100" fill="#ffffff"/>
  <g fill="#000000" font-family="monospace" font-size="8.018" text-anchor="middle">
  <text x="11.000" y="14.491">/</text>
  <text x="17.000" y="14.491">/</text>
  <text x="23.000" y="14.491">/</text>
  <text x="29.000" y="14.491">/</text>
  <text x="71.000" y="14.491">/</text>
  <text x="77.000" y="14.491">/</text>
  <text x="83.000" y="14.491">/</text>
  <text x="89.000" y="14.491">/</text>
  <text x="11.000" y="22.127">/</text>
  <text x="17.000" y="22.127">/</text>
  <text x="23.000" y="22.127">/</text>
  <text x="29.000" y="22.127">/</text>
  <text x="71.000" y="22.127">/</text>
  <text x="77.000" y="22.127">/</text>
  <text x="83.000" y="22.127">/</text>
  <text x="89.000" y="22.127">/</text>
  <text x="11.000" y="29.764">/</text>
  <text x="17.000" y="29.764">/</text>
  <text x="23.000" y="29.764">/</text>
  <text x="29.000" y="29.764">/</text>
  <text x="71.000" y="29.764">/</text>
  <text x="77.000" y="29.764">/</text>
  <text x="83.000" y="29.764">/</text>
  <text x="89.000" y="29.764">/</text>
  <text x="11.000" y="37.400">/</text>
  <text x="17.000" y="37.400">/</text>
  <text x="23.000" y="37.400">/</text>
  <text x="29.000" y="37.400">/</text>
  <text x="71.000" y="37.400">/</text>
  <text x="77.000" y="37.400">/</text>
  <text x="83.000" y="37.400">/</text>
  <text x="89.000" y="37.400">/</text>
  <text x="11.000" y="45.036">/</text>
  <text x="17.000" y="45.036">/</text>
  <text x="23.000" y="45.036">/</text>
  <text x="29.000" y="45.036">/</text>
  <text x="71.000" y="45.036">/</text>
  <text x="77.000" y="45.036">/</text>
  <text x="83.000" y="45.036">/</text>
  <text x="89.000" y="45.036">/</text>
  <text x="11.000" y="52.673">/</text>
  <text x="17.000" y="52.673">/</text>
  <text x="23.000" y="52.673">/</text>
  <text x="29.000" y="52.673">/</text>
  <text x="71.000" y="52.673">/</text>
  <text x="77.000" y="52.673">/</text>
  <text x="83.000" y="52.673">/</text>
  <text x="89.000" y="52.673">/</text>
  <text x="11.000" y="60.309">/</text>
  <text x="17.000" y="60.309">/</text>
  <text x="23.000" y="60.309">/</text>
  <text x="29.000" y="60.309">/</text>
  <text x="35.000" y="60.309">/</text>
  <text x="65.000" y="60.309">/</text>
  <text x="71.000" y="60.309">/</text>
  <text x="77.000" y="60.309">/</text>
  <text x="83.000" y="60.309">/</text>
  <text x="89.000" y="60.309">/</text>
  <text x="11.000" y="67.945">/</text>
  <text x="17.000" y="67.945">/</text>
  <text x="23.000" y="67.945">/</text>
  <text x="29.000" y="67.945">/</text>
  <text x="35.000" y="67.945">/</text>
  <text x="41.000" y="67.945">/</text>
  <text x="47.000" y="67.945">/</text>
  <text x="53.000" y="67.945">/</text>
  <text x="59.000" y="67.945">/</text>
  <text x="65.000" y="67.945">/</text>
  <text x="71.000" y="67.945">/</text>
  <text x="77.000" y="67.945">/</text>
  <text x="11.000" y="75.582">/</text>
  <text x="17.000" y="75.582">/</text>
  <text x="23.000" y="75.582">/</text>
  <text x="29.000" y="75.582">/</text>
  <text x="11.000" y="83.218">/</text>
  <text x="17.000" y="83.218">/</text>
  <text x="23.000" y="83.218">/</text>
  <text x="29.000" y="83.218">/</text>
  <text x="11.000" y="90.855">/</text>
  <text x="17.000" y="90.855">/</text>
  <text x="23.000" y="90.855">/</text>
  <text x="29.000" y="90.855">/</text>
  </g>
</svg>